<?xml version="1.0" encoding="utf-8"?>
<!-- Generator: Adobe Illustrator 16.0.3, SVG Export Plug-In . SVG Version: 6.00 Build 0)  -->
<!DOCTYPE svg PUBLIC "-//W3C//DTD SVG 1.1//EN" "http://www.w3.org/Graphics/SVG/1.1/DTD/svg11.dtd">
<svg version="1.1" id="visual" xmlns="http://www.w3.org/2000/svg" xmlns:xlink="http://www.w3.org/1999/xlink" x="0px" y="0px"
	 width="959.083px" height="68.35px" viewBox="0.495 0 959.083 68.35" enable-background="new 0.495 0 959.083 68.35"
	 xml:space="preserve">
<path fill="#191E3C" d="M0,44l32,5.5C64,55,128,66,192,68s128-5,192-10.7c64-5.6,128-10,192-8s128,10.4,192,13.9s128,2.1,160,1.5
	l32-0.7V0h-32c-32,0-96,0-160,0S640,0,576,0S448,0,384,0S256,0,192,0S64,0,32,0H0V44z"/>
</svg>
