<?xml version="1.0" encoding="utf-8"?>
<!-- Generator: Adobe Illustrator 16.0.3, SVG Export Plug-In . SVG Version: 6.00 Build 0)  -->
<!DOCTYPE svg PUBLIC "-//W3C//DTD SVG 1.1//EN" "http://www.w3.org/Graphics/SVG/1.1/DTD/svg11.dtd">
<svg version="1.1" id="visual" xmlns="http://www.w3.org/2000/svg" xmlns:xlink="http://www.w3.org/1999/xlink" x="0px" y="0px"
	 width="190.5px" height="188.49px" viewBox="0 0 190.5 188.49" enable-background="new 0 0 190.5 188.49" xml:space="preserve">
<g transform="translate(-40.76456523338405 -0.15703264183433419)">
	<path fill="#790C86" d="M112-188.1c17.3,4.1,4.6,66.1,37.2,107.1s110.4,61,99.5,74.7c-11,13.6-110.8,21-147.4,55
		C64.7,82.8,91.4,143.6,85,168.4c-6.3,24.9-45.7,13.7-85.4,14.4c-39.8,0.8-79.9,13.3-104.6-0.9c-24.7-14.3-33.9-55.3-31.1-90.1
		c2.7-34.8,17.4-63.3,6-98.4c-11.4-35.1-48.9-76.7-35.1-82.8c13.8-6.1,79,23.4,115,30c36.1,6.7,43.2-9.4,70.4-44.3
		C47.3-138.7,94.7-192.3,112-188.1"/>
</g>
</svg>
