<svg id="visual" viewBox="0 0 960 540" width="960" height="540" xmlns="http://www.w3.org/2000/svg" xmlns:xlink="http://www.w3.org/1999/xlink" version="1.1"><g transform="translate(25.302957631208272 575.7991361262418)"><path d="M51.2 -80.4C75.7 -74.5 111.5 -79.8 142.1 -68.2C172.8 -56.7 198.4 -28.3 195.1 -1.9C191.8 24.5 159.5 49 131.5 65.2C103.5 81.3 79.8 89.2 58.6 83.9C37.3 78.7 18.7 60.5 -1 62.2C-20.7 63.9 -41.3 85.7 -81.9 102C-122.5 118.4 -182.9 129.5 -201.9 111.6C-220.9 93.7 -198.5 46.8 -206.6 -4.7C-214.8 -56.2 -253.5 -112.5 -244.7 -148C-235.9 -183.5 -179.4 -198.3 -130.7 -190.2C-82 -182 -41 -151 -13.8 -127.1C13.3 -103.1 26.7 -86.2 51.2 -80.4" fill="#790c86"></path></g></svg>