<?xml version="1.0" standalone="no"?>
<!DOCTYPE svg PUBLIC "-//W3C//DTD SVG 20010904//EN"
 "http://www.w3.org/TR/2001/REC-SVG-20010904/DTD/svg10.dtd">
<svg version="1.0" xmlns="http://www.w3.org/2000/svg"
 width="512.000000pt" height="512.000000pt" viewBox="0 0 512.000000 512.000000"
 preserveAspectRatio="xMidYMid meet">

<g transform="translate(0.000000,512.000000) scale(0.100000,-0.100000)"
fill="white" stroke="none">
<path d="M895 4466 c-41 -18 -83 -69 -90 -109 -3 -18 -4 -808 -3 -1757 l3
-1725 27 -51 c40 -76 70 -107 140 -145 l63 -34 485 0 485 0 63 34 c70 38 100
69 140 145 l27 51 5 474 5 474 329 -554 c181 -305 340 -566 355 -582 14 -15
41 -32 61 -38 23 -6 243 -9 632 -7 585 3 597 3 624 24 15 11 37 33 48 48 l21
27 0 1752 0 1752 -27 51 c-40 76 -70 107 -140 145 l-63 34 -485 0 -485 0 -50
-25 c-64 -31 -124 -91 -155 -155 l-25 -50 -5 -474 -5 -474 -329 554 c-181 305
-338 565 -350 578 -45 51 -42 51 -678 51 -470 -1 -599 -4 -623 -14z m2046
-1906 l950 -1595 -377 -3 c-208 -1 -381 1 -385 5 -7 8 -1865 3128 -1888 3171
l-12 22 382 -2 381 -3 949 -1595z m1059 228 c0 -787 -4 -1368 -9 -1362 -5 5
-185 305 -400 667 l-391 658 0 705 0 704 400 0 400 0 0 -1372z m-2471 239
l391 -658 0 -705 0 -704 -400 0 -400 0 0 1372 c0 787 4 1368 9 1363 5 -6 185
-306 400 -668z"/>
</g>
</svg>
