<svg id="visual" viewBox="0 0 900 600" width="900" height="600" xmlns="http://www.w3.org/2000/svg" xmlns:xlink="http://www.w3.org/1999/xlink" version="1.1"><path d="M0 121L113 121L113 49L225 49L225 85L338 85L338 55L450 55L450 103L563 103L563 37L675 37L675 55L788 55L788 73L900 73L900 109L900 0L900 0L788 0L788 0L675 0L675 0L563 0L563 0L450 0L450 0L338 0L338 0L225 0L225 0L113 0L113 0L0 0Z" fill="#11857d"></path><path d="M0 361L113 361L113 145L225 145L225 271L338 271L338 187L450 187L450 277L563 277L563 301L675 301L675 253L788 253L788 223L900 223L900 313L900 107L900 71L788 71L788 53L675 53L675 35L563 35L563 101L450 101L450 53L338 53L338 83L225 83L225 47L113 47L113 119L0 119Z" fill="#108f87"></path><path d="M0 439L113 439L113 373L225 373L225 397L338 397L338 421L450 421L450 409L563 409L563 397L675 397L675 427L788 427L788 367L900 367L900 445L900 311L900 221L788 221L788 251L675 251L675 299L563 299L563 275L450 275L450 185L338 185L338 269L225 269L225 143L113 143L113 359L0 359Z" fill="#0f9a91"></path><path d="M0 475L113 475L113 457L225 457L225 439L338 439L338 469L450 469L450 469L563 469L563 481L675 481L675 481L788 481L788 415L900 415L900 493L900 443L900 365L788 365L788 425L675 425L675 395L563 395L563 407L450 407L450 419L338 419L338 395L225 395L225 371L113 371L113 437L0 437Z" fill="#0da49b"></path><path d="M0 571L113 571L113 553L225 553L225 547L338 547L338 547L450 547L450 541L563 541L563 529L675 529L675 535L788 535L788 535L900 535L900 535L900 491L900 413L788 413L788 479L675 479L675 479L563 479L563 467L450 467L450 467L338 467L338 437L225 437L225 455L113 455L113 473L0 473Z" fill="#0aafa5"></path><path d="M0 601L113 601L113 601L225 601L225 601L338 601L338 601L450 601L450 601L563 601L563 601L675 601L675 601L788 601L788 601L900 601L900 601L900 533L900 533L788 533L788 533L675 533L675 527L563 527L563 539L450 539L450 545L338 545L338 545L225 545L225 551L113 551L113 569L0 569Z" fill="#07baaf"></path></svg>