<?xml version="1.0" encoding="utf-8"?>
<!-- Generator: Adobe Illustrator 16.0.3, SVG Export Plug-In . SVG Version: 6.00 Build 0)  -->
<!DOCTYPE svg PUBLIC "-//W3C//DTD SVG 1.1//EN" "http://www.w3.org/Graphics/SVG/1.1/DTD/svg11.dtd">
<svg version="1.1" id="Capa_1" xmlns="http://www.w3.org/2000/svg" xmlns:xlink="http://www.w3.org/1999/xlink" x="0px" y="0px"
	 width="612px" height="609.261px" viewBox="0 91.372 612 609.261" enable-background="new 0 91.372 612 609.261"
	 xml:space="preserve">
<g>
	<path fill="#FFFFFF" d="M594.382,548.786l-88.454-88.492c-11.88-11.818-27.786-18.33-44.784-18.33
		c-17.689,0-34.392,6.965-47.021,19.601l-34.432,34.425c-26.755-14.872-62.316-35.326-99.237-72.246
		c-36.877-36.89-57.334-72.348-72.281-99.248l34.464-34.439c25.624-25.677,26.148-66.871,1.172-91.824l-88.437-88.439
		c-11.846-11.879-27.753-18.421-44.794-18.421c-17.294,0-33.654,6.659-46.209,18.778c-7.595,6.117-45.71,39.764-59.917,109.154
		c-19.889,97.125,25.809,190.575,157.733,322.552c147.37,147.325,273.181,158.776,308.23,158.776c7.297,0,11.699-0.45,12.874-0.587
		c68.729-8.057,93.338-38.579,111.306-60.866C617.879,610.295,617.798,572.288,594.382,548.786z M565.031,615.344
		c-16.89,20.947-32.84,40.73-86.158,46.981c-0.028,0.002-2.944,0.329-8.456,0.329c-31.358,0-144.33-10.648-281.376-147.652
		C67.382,393.293,24.682,309.83,41.657,226.919c12.391-60.524,45.286-86.249,46.564-87.226l1.134-0.838l0.995-0.998
		c5.491-5.486,12.674-8.509,20.226-8.509c6.876,0,13.236,2.577,17.925,7.281l88.457,88.459c10.178,10.167,9.636,27.277-1.192,38.128
		l-38.977,38.943l-0.641,0.671c-10.157,11.188-8.962,26.308-3.367,36.153c16.145,29.136,38.26,69.039,80.813,111.605
		c42.412,42.412,82.256,64.509,111.311,80.623c2.909,1.634,8.914,4.373,16.431,4.373c8.877,0,17.026-3.758,23.06-10.605
		l36.579-36.569c5.461-5.463,12.62-8.474,20.162-8.474c6.892,0,13.284,2.585,17.963,7.238l88.396,88.435
		C578.726,586.879,574.09,604.107,565.031,615.344z"/>
	<path fill="#FFFFFF" d="M370.768,184.417c32.626,3.754,71.043,23.518,97.869,50.346c27.077,27.077,46.889,65.884,50.466,98.865
		c1.056,9.729,9.284,16.94,18.854,16.94c0.684,0,1.378-0.038,2.071-0.111c10.426-1.132,17.96-10.5,16.829-20.925
		c-4.524-41.69-28.04-88.292-61.365-121.62c-33.014-33.017-79.14-56.473-120.382-61.22c-10.413-1.208-19.834,6.276-21.034,16.692
		S360.347,183.216,370.768,184.417z"/>
	<path fill="#FFFFFF" d="M353.027,263.959c17.646,2.033,42.067,15.122,58.065,31.121c16.135,16.137,29.249,40.792,31.182,58.627
		c1.056,9.732,9.283,16.942,18.854,16.942c0.684,0,1.375-0.038,2.068-0.111c10.426-1.131,17.963-10.499,16.831-20.925
		c-3.301-30.452-23.518-62.82-42.085-81.388c-18.401-18.403-50.453-38.523-80.573-41.994c-10.428-1.213-19.836,6.274-21.036,16.689
		C335.136,253.338,342.609,262.759,353.027,263.959z"/>
</g>
</svg>
